<svg width="47" height="50" viewBox="0 0 47 50" fill="none" xmlns="http://www.w3.org/2000/svg">
<path fill-rule="evenodd" clip-rule="evenodd" d="M1 9.37147V21.398C1 33.5274 9.76579 44.9012 21.7701 48.2981C22.7117 48.5648 23.7311 48.5648 24.6726 48.2981C36.6742 44.8985 45.44 33.5302 45.44 21.4008V9.37425C38.4963 -1.63731 7.94375 -1.94249 1 9.37147Z" fill="#00A1E1" stroke="#00A1E1" stroke-width="1.5" stroke-linecap="round" stroke-linejoin="round"/>
<path fill-rule="evenodd" clip-rule="evenodd" d="M25.8171 17.1669C27.373 18.7227 27.373 21.2453 25.8171 22.8011C24.2613 24.357 21.7387 24.357 20.1829 22.8011C18.627 21.2453 18.627 18.7227 20.1829 17.1669C21.7387 15.611 24.2613 15.611 25.8171 17.1669Z" fill="white"/>
<path d="M25.8171 17.1669C27.373 18.7227 27.373 21.2453 25.8171 22.8011C24.2613 24.357 21.7387 24.357 20.1829 22.8011C18.627 21.2453 18.627 18.7227 20.1829 17.1669C21.7387 15.611 24.2613 15.611 25.8171 17.1669" stroke="white" stroke-width="1.5" stroke-linecap="round" stroke-linejoin="round"/>
<path fill-rule="evenodd" clip-rule="evenodd" d="M23 27.0081C27.554 27.0081 32 28.9751 32 32.0001V33.0001C32 33.5521 31.552 34.0001 31 34.0001H15C14.448 34.0001 14 33.5521 14 33.0001V32.0001C14 28.9741 18.446 27.0081 23 27.0081Z" fill="white"/>
<path d="M23 27.0081C27.554 27.0081 32 28.9751 32 32.0001V33.0001C32 33.5521 31.552 34.0001 31 34.0001H15C14.448 34.0001 14 33.5521 14 33.0001V32.0001C14 28.9741 18.446 27.0081 23 27.0081" stroke="white" stroke-width="1.5" stroke-linecap="round" stroke-linejoin="round"/>
</svg>
