<svg width="65" height="33" viewBox="0 0 65 33" fill="none" xmlns="http://www.w3.org/2000/svg">
<path fill-rule="evenodd" clip-rule="evenodd" d="M16.1062 4.5C22.7342 4.5 28.1062 9.872 28.1062 16.5C28.1062 23.128 22.7342 28.5 16.1062 28.5C9.4782 28.5 4.1062 23.128 4.1062 16.5C4.1062 9.872 9.4782 4.5 16.1062 4.5Z" fill="#012A50"/>
<path d="M18.1062 21.5L13.1062 16.5L18.1062 11.5" stroke="white" stroke-width="2" stroke-linecap="round" stroke-linejoin="round"/>
<path fill-rule="evenodd" clip-rule="evenodd" d="M48.1062 28.5C41.4782 28.5 36.1062 23.128 36.1062 16.5C36.1062 9.872 41.4782 4.5 48.1062 4.5C54.7342 4.5 60.1062 9.872 60.1062 16.5C60.1062 23.128 54.7342 28.5 48.1062 28.5Z" fill="#012A50"/>
<path d="M46.1062 11.5L51.1062 16.5L46.1062 21.5" stroke="white" stroke-width="2" stroke-linecap="round" stroke-linejoin="round"/>
</svg>
