<svg width="42" height="42" viewBox="0 0 42 42" fill="none" xmlns="http://www.w3.org/2000/svg">
<path fill-rule="evenodd" clip-rule="evenodd" d="M24.529 20.4704H32.029C32.8574 20.4704 33.529 21.142 33.529 21.9704V27.9704C33.529 28.7988 32.8574 29.4704 32.029 29.4704H26.029C25.2006 29.4704 24.529 28.7988 24.529 27.9704V20.4704Z" fill="#00A1E1"/>
<path d="M24.529 20.4704H32.029C32.8574 20.4704 33.529 21.142 33.529 21.9704V27.9704C33.529 28.7988 32.8574 29.4704 32.029 29.4704H26.029C25.2006 29.4704 24.529 28.7988 24.529 27.9704V20.4704" stroke="#00A1E1" stroke-width="3" stroke-linecap="round" stroke-linejoin="round"/>
<path d="M24.529 20.9999C24.529 14.9999 25.654 14.0009 29.029 11.9999" stroke="#00A1E1" stroke-width="3" stroke-linecap="round" stroke-linejoin="round"/>
<path fill-rule="evenodd" clip-rule="evenodd" d="M8.99994 20.4704H16.4999C17.3284 20.4704 17.9999 21.142 17.9999 21.9704V27.9704C17.9999 28.7988 17.3284 29.4704 16.4999 29.4704H10.4999C9.67151 29.4704 8.99994 28.7988 8.99994 27.9704V20.4704Z" fill="#00A1E1"/>
<path d="M8.99994 20.4704H16.4999C17.3284 20.4704 17.9999 21.142 17.9999 21.9704V27.9704C17.9999 28.7988 17.3284 29.4704 16.4999 29.4704H10.4999C9.67151 29.4704 8.99994 28.7988 8.99994 27.9704V20.4704" stroke="#00A1E1" stroke-width="3" stroke-linecap="round" stroke-linejoin="round"/>
<path d="M8.99994 20.9999C8.99994 14.9999 10.1249 14.0009 13.4999 11.9999" stroke="#00A1E1" stroke-width="3" stroke-linecap="round" stroke-linejoin="round"/>
</svg>
