<svg width="51" height="50" viewBox="0 0 51 50" fill="none" xmlns="http://www.w3.org/2000/svg">
<rect x="0.25" y="-0.000244141" width="50" height="50" rx="12" fill="#03C37B"/>
<path fill-rule="evenodd" clip-rule="evenodd" d="M32.8333 36.9998H18.1667C16.6933 36.9998 15.5 35.8064 15.5 34.3331V15.6664C15.5 14.1931 16.6933 12.9998 18.1667 12.9998H32.8333C34.3067 12.9998 35.5 14.1931 35.5 15.6664V34.3331C35.5 35.8064 34.3067 36.9998 32.8333 36.9998Z" stroke="white" stroke-width="1.5" stroke-linecap="round" stroke-linejoin="round"/>
<path d="M25.5 20.6664V19.1664" stroke="white" stroke-width="2.25" stroke-linecap="round" stroke-linejoin="round"/>
<path d="M25.5 29.6664V31.1664" stroke="white" stroke-width="2.25" stroke-linecap="round" stroke-linejoin="round"/>
<path d="M22.896 28.5944C23.284 29.2304 23.948 29.6704 24.75 29.6704H25.5H26.394C27.558 29.6704 28.5 28.7264 28.5 27.5644C28.5 26.5984 27.842 25.7564 26.906 25.5204L24.094 24.8164C23.158 24.5804 22.5 23.7384 22.5 22.7724C22.5 21.6104 23.444 20.6664 24.606 20.6664H25.5H26.25C27.05 20.6664 27.712 21.1044 28.1 21.7384" stroke="white" stroke-width="2.25" stroke-linecap="round" stroke-linejoin="round"/>
</svg>
