<svg width="42" height="42" viewBox="0 0 42 42" fill="none" xmlns="http://www.w3.org/2000/svg">
<path d="M14.7474 20.1662H11.4127" stroke="#0070AB" stroke-width="2" stroke-linecap="round" stroke-linejoin="round"/>
<path d="M30.8091 14.8207L34.3389 13.0549" stroke="#0070AB" stroke-width="2" stroke-linecap="round" stroke-linejoin="round"/>
<path d="M9.52524 14.8207L5.99377 13.0549" stroke="#0070AB" stroke-width="2" stroke-linecap="round" stroke-linejoin="round"/>
<path d="M30.9209 15.4235L29.314 8.56742C28.9607 7.05971 27.6159 5.99365 26.0673 5.99365H14.2653C12.7168 5.99365 11.372 7.05971 11.0186 8.56742L9.41171 15.4235" stroke="#0070AB" stroke-width="2" stroke-linecap="round" stroke-linejoin="round"/>
<path d="M34.3389 21.0001V20.1664C34.3389 17.4038 32.0994 15.1643 29.3368 15.1643H10.9959C8.23328 15.1643 5.99377 17.4038 5.99377 20.1664V27.6695C5.99377 28.5904 6.74028 29.3369 7.66114 29.3369H11.3894C12.3102 29.3369 13.0567 28.5904 13.0567 27.6695V25.1685H20.9517" stroke="#0070AB" stroke-width="2" stroke-linecap="round" stroke-linejoin="round"/>
<path d="M25.5852 20.1662H28.92" stroke="#0070AB" stroke-width="2" stroke-linecap="round" stroke-linejoin="round"/>
<path fill-rule="evenodd" clip-rule="evenodd" d="M31.0042 36.0062C31.0042 32.7832 28.3914 30.1705 25.1684 30.1705C28.3914 30.1705 31.0042 27.5577 31.0042 24.3347C31.0042 27.5577 33.617 30.1705 36.84 30.1705C33.617 30.1705 31.0042 32.7832 31.0042 36.0062Z" fill="#0070AB" stroke="#0070AB" stroke-width="2" stroke-linecap="round" stroke-linejoin="round"/>
</svg>
