<svg width="42" height="42" viewBox="0 0 42 42" fill="none" xmlns="http://www.w3.org/2000/svg">
<path d="M27.2869 32.6716H14.9669" stroke="#0070AB" stroke-width="2" stroke-linecap="round" stroke-linejoin="round"/>
<circle cx="29.9172" cy="31.4211" r="2.91788" fill="#0070AB" stroke="#0070AB" stroke-width="2" stroke-linecap="round" stroke-linejoin="round"/>
<circle cx="12.049" cy="31.4211" r="2.91788" fill="#0070AB" stroke="#0070AB" stroke-width="2" stroke-linecap="round" stroke-linejoin="round"/>
<path d="M32.5487 32.6714H34.6104C35.843 32.6701 36.8901 31.7693 37.0756 30.5507L37.6344 26.9076C37.9063 25.2038 36.8312 23.5747 35.1578 23.1546C32.6568 22.5599 30.0885 22.2964 27.5188 22.3709C26.023 21.0626 24.368 19.9485 22.5929 19.0551C18.8984 17.2022 14.5459 17.2022 10.8513 19.0551L7.09811 20.9369C6.56933 21.1988 6.02039 21.4179 5.45657 21.592C4.77733 21.8142 4.32015 22.4506 4.32636 23.1653V30.1705C4.3255 30.8329 4.58776 31.4686 5.05551 31.9376C5.52325 32.4067 6.15816 32.6707 6.82056 32.6716H9.41732" stroke="#0070AB" stroke-width="2" stroke-linecap="round" stroke-linejoin="round"/>
</svg>
