<svg width="40" height="40" viewBox="0 0 40 40" fill="none" xmlns="http://www.w3.org/2000/svg">
<path fill-rule="evenodd" clip-rule="evenodd" d="M10 16.6666V9.99996C10 8.15829 11.4917 6.66663 13.3333 6.66663H31.6667C33.5083 6.66663 35 8.15829 35 9.99996V21.6666C35 23.5083 33.5083 25 31.6667 25H30" fill="#0070AB"/>
<path d="M10 16.6666V9.99996C10 8.15829 11.4917 6.66663 13.3333 6.66663H31.6667C33.5083 6.66663 35 8.15829 35 9.99996V21.6666C35 23.5083 33.5083 25 31.6667 25H30" stroke="#0070AB" stroke-width="2" stroke-linecap="round" stroke-linejoin="round"/>
<path fill-rule="evenodd" clip-rule="evenodd" d="M26.6667 35H8.33333C6.49167 35 5 33.5083 5 31.6666V20C5 18.1583 6.49167 16.6666 8.33333 16.6666H26.6667C28.5083 16.6666 30 18.1583 30 20V31.6666C30 33.5083 28.5083 35 26.6667 35Z" fill="white" stroke="#0070AB" stroke-width="2" stroke-linecap="round" stroke-linejoin="round"/>
<path d="M20.77 28.5299C20.905 28.6649 20.905 28.8816 20.77 29.0149C20.635 29.1499 20.4183 29.1499 20.285 29.0149C20.15 28.8799 20.15 28.6632 20.285 28.5299C20.4183 28.3966 20.6367 28.3966 20.77 28.5299" stroke="#0070AB" stroke-width="2" stroke-linecap="round" stroke-linejoin="round"/>
<path d="M14.4983 28.74L20.4983 22.74" stroke="#0070AB" stroke-width="2" stroke-linecap="round" stroke-linejoin="round"/>
<path d="M14.7133 22.4666C14.8483 22.6016 14.8483 22.8183 14.7133 22.9516C14.5783 23.0866 14.3617 23.0866 14.2283 22.9516C14.095 22.8166 14.0933 22.6 14.2283 22.4666C14.3633 22.3333 14.58 22.3316 14.7133 22.4666" stroke="#0070AB" stroke-width="2" stroke-linecap="round" stroke-linejoin="round"/>
</svg>
