<svg width="48" height="48" viewBox="0 0 48 48" fill="none" xmlns="http://www.w3.org/2000/svg">
<rect width="48" height="48" rx="24" fill="white"/>
<path fill-rule="evenodd" clip-rule="evenodd" d="M15 19.051V28.5C15 30.157 16.343 31.5 18 31.5H30C31.657 31.5 33 30.157 33 28.5V19.052" fill="#014479"/>
<path d="M15 19.051V28.5C15 30.157 16.343 31.5 18 31.5H30C31.657 31.5 33 30.157 33 28.5V19.052" stroke="#014479" stroke-width="1.5" stroke-linecap="round" stroke-linejoin="round"/>
<path fill-rule="evenodd" clip-rule="evenodd" d="M27.3739 24.218L31.8799 21.163C32.5809 20.689 32.9999 19.898 32.9999 19.052C32.9999 17.642 31.8579 16.5 30.4489 16.5H17.5659C16.1569 16.5 15.0149 17.642 15.0149 19.051C15.0149 19.897 15.4339 20.688 16.1349 21.163L20.6409 24.218C22.6739 25.596 25.3409 25.596 27.3739 24.218Z" fill="#014479" stroke="white" stroke-width="1.5" stroke-linecap="round" stroke-linejoin="round"/>
</svg>
