<svg width="40" height="40" viewBox="0 0 40 40" fill="none" xmlns="http://www.w3.org/2000/svg">
<path fill-rule="evenodd" clip-rule="evenodd" d="M11.45 35.68L4.32 28.55C3.005 27.235 3.005 25.105 4.32 23.79L22.15 5.95995C24.1217 3.98828 27.3183 3.98828 29.29 5.95995L34.04 10.71C36.0117 12.6816 36.0117 15.8783 34.04 17.85L16.21 35.68C14.8967 36.9933 12.765 36.9933 11.45 35.68Z" stroke="#0070AB" stroke-width="2" stroke-linecap="round" stroke-linejoin="round"/>
<path fill-rule="evenodd" clip-rule="evenodd" d="M26.91 24.98L27.5817 21.735C27.9267 20.0717 27.41 18.3467 26.2083 17.145L22.8533 13.79C21.6517 12.5883 19.9267 12.0733 18.2633 12.4167L15.02 13.09" fill="#0070AB"/>
<path d="M26.91 24.98L27.5817 21.735C27.9267 20.0717 27.41 18.3467 26.2083 17.145L22.8533 13.79C21.6517 12.5883 19.9267 12.0733 18.2633 12.4167L15.02 13.09" stroke="#0070AB" stroke-width="2" stroke-linecap="round" stroke-linejoin="round"/>
<path d="M15.0167 13.0832L12.65 10.7166" stroke="#0070AB" stroke-width="2" stroke-linecap="round" stroke-linejoin="round"/>
<path d="M7.88333 20.2334L19.7667 32.1167" stroke="#0070AB" stroke-width="2" stroke-linecap="round" stroke-linejoin="round"/>
<path d="M16.2167 3.33322V4.76655" stroke="#0070AB" stroke-width="2" stroke-linecap="round" stroke-linejoin="round"/>
<path d="M5.26667 14.2833H6.7" stroke="#0070AB" stroke-width="2" stroke-linecap="round" stroke-linejoin="round"/>
<path d="M7.88333 5.94989L9.08333 7.14989" stroke="#0070AB" stroke-width="2" stroke-linecap="round" stroke-linejoin="round"/>
<path d="M25.7167 34.7333V33.3" stroke="#0070AB" stroke-width="2" stroke-linecap="round" stroke-linejoin="round"/>
<path d="M36.6667 23.7833H35.2333" stroke="#0070AB" stroke-width="2" stroke-linecap="round" stroke-linejoin="round"/>
<path d="M34.05 32.1167L32.85 30.9333" stroke="#0070AB" stroke-width="2" stroke-linecap="round" stroke-linejoin="round"/>
<path d="M29.2833 27.3667L26.9167 24.9834" stroke="#0070AB" stroke-width="2" stroke-linecap="round" stroke-linejoin="round"/>
</svg>
