<svg width="48" height="48" viewBox="0 0 48 48" fill="none" xmlns="http://www.w3.org/2000/svg">
<rect width="48" height="48" rx="24" fill="white"/>
<path fill-rule="evenodd" clip-rule="evenodd" d="M19.496 15H28.505C30.987 15 33 17.012 33 19.496V28.505C33 30.987 30.988 33 28.504 33H19.496C17.013 33 15 30.988 15 28.504V19.496C15 17.013 17.012 15 19.496 15V15Z" fill="#014479" stroke="#014479" stroke-width="1.5" stroke-linecap="round" stroke-linejoin="round"/>
<path fill-rule="evenodd" clip-rule="evenodd" d="M28.949 18.713C28.763 18.714 28.612 18.865 28.612 19.051C28.612 19.237 28.764 19.388 28.95 19.388C29.136 19.388 29.287 19.237 29.287 19.051C29.288 18.864 29.136 18.713 28.949 18.713Z" fill="#DEE2E6"/>
<path d="M28.949 18.713C28.763 18.714 28.612 18.865 28.612 19.051C28.612 19.237 28.764 19.388 28.95 19.388C29.136 19.388 29.287 19.237 29.287 19.051C29.288 18.864 29.136 18.713 28.949 18.713" stroke="#DEE2E6" stroke-width="1.5" stroke-linecap="round" stroke-linejoin="round"/>
<path d="M26.5456 21.4544C27.9515 22.8603 27.9515 25.1397 26.5456 26.5456C25.1397 27.9515 22.8603 27.9515 21.4544 26.5456C20.0485 25.1397 20.0485 22.8603 21.4544 21.4544C22.8603 20.0486 25.1397 20.0486 26.5456 21.4544" stroke="#DEE2E6" stroke-width="1.5" stroke-linecap="round" stroke-linejoin="round"/>
</svg>
