<svg width="32" height="32" viewBox="0 0 32 32" fill="none" xmlns="http://www.w3.org/2000/svg">
<path fill-rule="evenodd" clip-rule="evenodd" d="M16.9413 17.333V11.333C16.9413 10.229 16.0453 9.33301 14.9413 9.33301C13.8373 9.33301 12.9413 10.229 12.9413 11.333V21.333L10.232 20.4303C9.4413 20.1663 8.5693 20.373 7.97864 20.9623C7.06264 21.8783 7.13197 23.381 8.1253 24.2103L13.532 28.7157C14.0133 29.1143 14.6173 29.333 15.24 29.333H21.2533C22.5986 29.333 23.732 28.3317 23.9 26.997L24.624 21.2063C24.8013 19.7863 23.8266 18.481 22.416 18.245L16.9413 17.333Z" stroke="#75DAFF" stroke-width="1.5" stroke-linecap="round" stroke-linejoin="round"/>
<path d="M6.94666 10.6664H8.27999" stroke="#75DAFF" stroke-width="1.5" stroke-linecap="round" stroke-linejoin="round"/>
<path d="M22.9467 10.6664H21.6133" stroke="#75DAFF" stroke-width="1.5" stroke-linecap="round" stroke-linejoin="round"/>
<path d="M20.6 5.01299L19.6533 5.94632" stroke="#75DAFF" stroke-width="1.5" stroke-linecap="round" stroke-linejoin="round"/>
<path d="M9.28 5.01299L10.2267 5.94632" stroke="#75DAFF" stroke-width="1.5" stroke-linecap="round" stroke-linejoin="round"/>
<path d="M14.9466 2.66638V3.99972" stroke="#75DAFF" stroke-width="1.5" stroke-linecap="round" stroke-linejoin="round"/>
</svg>
