<svg width="32" height="32" viewBox="0 0 32 32" fill="none" xmlns="http://www.w3.org/2000/svg">
<path d="M16.2357 13.7643C16.3659 13.8945 16.3659 14.1055 16.2357 14.2357C16.1056 14.3659 15.8945 14.3659 15.7643 14.2357C15.6342 14.1055 15.6342 13.8945 15.7643 13.7643C15.8945 13.6341 16.1056 13.6341 16.2357 13.7643" stroke="#00A1E1" stroke-width="1.5" stroke-linecap="round" stroke-linejoin="round"/>
<path d="M10.2357 13.7643C10.3659 13.8945 10.3659 14.1055 10.2357 14.2357C10.1055 14.3659 9.89445 14.3659 9.76428 14.2357C9.6341 14.1055 9.6341 13.8945 9.76428 13.7643C9.89445 13.6341 10.1055 13.6341 10.2357 13.7643" stroke="#00A1E1" stroke-width="1.5" stroke-linecap="round" stroke-linejoin="round"/>
<path d="M22.2357 13.7643C22.3659 13.8945 22.3659 14.1055 22.2357 14.2357C22.1056 14.3659 21.8945 14.3659 21.7643 14.2357C21.6342 14.1055 21.6342 13.8945 21.7643 13.7643C21.8945 13.6341 22.1056 13.6341 22.2357 13.7643" stroke="#00A1E1" stroke-width="1.5" stroke-linecap="round" stroke-linejoin="round"/>
<path fill-rule="evenodd" clip-rule="evenodd" d="M4 21.34V6.66665C4 5.93065 4.59733 5.33331 5.33333 5.33331H26.6667C27.4027 5.33331 28 5.93065 28 6.66665V26.6666L20.1213 22.7466L5.32667 22.6733C4.59333 22.6693 4 22.0733 4 21.34Z" stroke="#00A1E1" stroke-width="2" stroke-linecap="round" stroke-linejoin="round"/>
</svg>
