<svg width="32" height="32" viewBox="0 0 32 32" fill="none" xmlns="http://www.w3.org/2000/svg">
<path fill-rule="evenodd" clip-rule="evenodd" d="M26.6666 26.6666V7.70392C26.6666 6.39459 25.6053 5.33325 24.296 5.33325H7.70398C6.39465 5.33325 5.33331 6.39459 5.33331 7.70392V21.9266C5.33331 23.2359 6.39465 24.2973 7.70398 24.2973H22.2226L26.6666 26.6666Z" stroke="#75DAFF" stroke-width="1.3333" stroke-linecap="round" stroke-linejoin="round"/>
<path d="M15.9973 19.7213C15.8693 19.7213 15.7653 19.8253 15.7666 19.9533C15.7666 20.0813 15.8706 20.1853 15.9986 20.1853C16.1266 20.1853 16.2306 20.0813 16.2306 19.9533C16.232 19.8253 16.128 19.7213 15.9973 19.7213" stroke="#75DAFF" stroke-width="1.5" stroke-linecap="round" stroke-linejoin="round"/>
<path d="M15.9987 16.1013V15.7813C15.9987 14.7319 16.6467 14.1639 17.2973 13.7279C17.932 13.3013 18.568 12.7439 18.568 11.7159C18.568 10.2973 17.4187 9.14795 16 9.14795C14.5813 9.14795 13.4307 10.2946 13.4307 11.7133" stroke="#75DAFF" stroke-width="1.5" stroke-linecap="round" stroke-linejoin="round"/>
</svg>
