<svg width="58" height="62" viewBox="0 0 58 62" fill="none" xmlns="http://www.w3.org/2000/svg">
<path fill-rule="evenodd" clip-rule="evenodd" d="M1 11.5752V26.7672C1 42.089 12.073 56.4564 27.2369 60.7474C28.4263 61.0842 29.7139 61.0842 30.9033 60.7474C46.0637 56.4529 57.1367 42.0925 57.1367 26.7707V11.5787C48.3653 -2.33115 9.77136 -2.71665 1 11.5752Z" fill="#0070AB" stroke="#0070AB" stroke-width="1.5" stroke-linecap="round" stroke-linejoin="round"/>
<path fill-rule="evenodd" clip-rule="evenodd" d="M14.0689 42.118C12.4843 40.5334 12.4843 37.9642 14.0689 36.3795L34.3796 16.0688C35.9642 14.4842 38.5335 14.4842 40.1181 16.0688L43.9478 19.8985C45.5324 21.4832 45.5324 24.0524 43.9478 25.637L23.6371 45.9477C22.0525 47.5324 19.4832 47.5324 17.8986 45.9477L14.0689 42.118Z" stroke="white" stroke-width="2" stroke-linecap="round" stroke-linejoin="round"/>
<path fill-rule="evenodd" clip-rule="evenodd" d="M43.9478 19.8986C45.5324 21.4832 45.5324 24.0524 43.9478 25.6371L23.6371 45.9478C22.0524 47.5324 19.4832 47.5324 17.8985 45.9478L14.0689 42.1181C12.4842 40.5334 12.4842 37.9642 14.0689 36.3796L34.3795 16.0689C35.9642 14.4842 38.5334 14.4842 40.1181 16.0689L43.9478 19.8986Z" stroke="white" stroke-width="2" stroke-linecap="round" stroke-linejoin="round"/>
<path d="M38.5766 31.0084L29.0084 21.4402" stroke="white" stroke-width="2" stroke-linecap="round" stroke-linejoin="round"/>
<path d="M19.4401 31.0083L29.0083 40.5765" stroke="white" stroke-width="2" stroke-linecap="round" stroke-linejoin="round"/>
<path d="M15.6694 27.5902C15.6234 27.5902 15.5861 27.6276 15.5861 27.6736C15.5861 27.7196 15.6234 27.757 15.6694 27.757C15.7155 27.757 15.7528 27.7196 15.7528 27.6736C15.7542 27.6511 15.7458 27.6291 15.7299 27.6132C15.7139 27.5972 15.6919 27.5889 15.6694 27.5902" stroke="white" stroke-width="2" stroke-linecap="round" stroke-linejoin="round"/>
<path d="M25.757 17.6694C25.757 17.7154 25.7196 17.7527 25.6736 17.7527C25.6275 17.7527 25.5902 17.7154 25.5902 17.6694C25.5902 17.6233 25.6275 17.586 25.6736 17.586" stroke="white" stroke-width="2" stroke-linecap="round" stroke-linejoin="round"/>
<path d="M25.6736 17.5862C25.7196 17.5862 25.757 17.6235 25.757 17.6696" stroke="white" stroke-width="2" stroke-linecap="round" stroke-linejoin="round"/>
<path d="M20.7549 16.0021C20.7549 16.0482 20.7176 16.0855 20.6715 16.0855C20.6255 16.0855 20.5881 16.0482 20.5881 16.0021C20.5881 15.9561 20.6255 15.9188 20.6715 15.9188" stroke="white" stroke-width="2" stroke-linecap="round" stroke-linejoin="round"/>
<path d="M20.6715 15.9187C20.7176 15.9187 20.7549 15.956 20.7549 16.0021" stroke="white" stroke-width="2" stroke-linecap="round" stroke-linejoin="round"/>
<path d="M15.7528 17.6694C15.7528 17.7154 15.7155 17.7527 15.6694 17.7527C15.6234 17.7527 15.5861 17.7154 15.5861 17.6694C15.5861 17.6233 15.6234 17.586 15.6694 17.586" stroke="white" stroke-width="2" stroke-linecap="round" stroke-linejoin="round"/>
<path d="M15.6694 17.5862C15.7155 17.5862 15.7528 17.6235 15.7528 17.6696" stroke="white" stroke-width="2" stroke-linecap="round" stroke-linejoin="round"/>
<path d="M14.0854 22.6716C14.0854 22.7176 14.0481 22.7549 14.0021 22.7549C13.956 22.7549 13.9187 22.7176 13.9187 22.6716C13.9187 22.6255 13.956 22.5882 14.0021 22.5882" stroke="white" stroke-width="2" stroke-linecap="round" stroke-linejoin="round"/>
<path d="M14.0021 22.5881C14.0481 22.5881 14.0854 22.6255 14.0854 22.6715" stroke="white" stroke-width="2" stroke-linecap="round" stroke-linejoin="round"/>
<path d="M15.7528 27.6735C15.7528 27.7196 15.7155 27.7569 15.6694 27.7569C15.6234 27.7569 15.5861 27.7196 15.5861 27.6735C15.5861 27.6275 15.6234 27.5902 15.6694 27.5902" stroke="white" stroke-width="2" stroke-linecap="round" stroke-linejoin="round"/>
<path d="M15.6694 27.5903C15.7155 27.5903 15.7528 27.6277 15.7528 27.6737" stroke="white" stroke-width="2" stroke-linecap="round" stroke-linejoin="round"/>
<path d="M42.3472 34.4265C42.3933 34.4265 42.4306 34.3892 42.4306 34.3431C42.4306 34.2971 42.3933 34.2598 42.3472 34.2598C42.3012 34.2598 42.2639 34.2971 42.2639 34.3431C42.2625 34.3656 42.2709 34.3876 42.2868 34.4036C42.3027 34.4195 42.3247 34.4279 42.3472 34.4265" stroke="white" stroke-width="2" stroke-linecap="round" stroke-linejoin="round"/>
<path d="M32.2597 44.3471C32.2597 44.3011 32.297 44.2637 32.3431 44.2637C32.3891 44.2637 32.4264 44.3011 32.4264 44.3471C32.4264 44.3932 32.3891 44.4305 32.3431 44.4305" stroke="white" stroke-width="2" stroke-linecap="round" stroke-linejoin="round"/>
<path d="M32.3431 44.4305C32.297 44.4305 32.2597 44.3932 32.2597 44.3472" stroke="white" stroke-width="2" stroke-linecap="round" stroke-linejoin="round"/>
<path d="M37.2618 46.0146C37.2618 45.9685 37.2991 45.9312 37.3452 45.9312C37.3912 45.9312 37.4285 45.9685 37.4285 46.0146C37.4285 46.0606 37.3912 46.098 37.3452 46.098" stroke="white" stroke-width="2" stroke-linecap="round" stroke-linejoin="round"/>
<path d="M37.3452 46.098C37.2991 46.098 37.2618 46.0607 37.2618 46.0147" stroke="white" stroke-width="2" stroke-linecap="round" stroke-linejoin="round"/>
<path d="M42.2639 44.3471C42.2639 44.3011 42.3012 44.2637 42.3472 44.2637C42.3933 44.2637 42.4306 44.3011 42.4306 44.3471C42.4306 44.3932 42.3933 44.4305 42.3472 44.4305" stroke="white" stroke-width="2" stroke-linecap="round" stroke-linejoin="round"/>
<path d="M42.3472 44.4305C42.3012 44.4305 42.2639 44.3932 42.2639 44.3472" stroke="white" stroke-width="2" stroke-linecap="round" stroke-linejoin="round"/>
<path d="M43.9312 39.3452C43.9312 39.2991 43.9685 39.2618 44.0146 39.2618C44.0606 39.2618 44.098 39.2991 44.098 39.3452C44.098 39.3912 44.0606 39.4285 44.0146 39.4285" stroke="white" stroke-width="2" stroke-linecap="round" stroke-linejoin="round"/>
<path d="M44.0146 39.4286C43.9685 39.4286 43.9312 39.3913 43.9312 39.3452" stroke="white" stroke-width="2" stroke-linecap="round" stroke-linejoin="round"/>
<path d="M42.2639 34.343C42.2639 34.2969 42.3012 34.2596 42.3472 34.2596C42.3933 34.2596 42.4306 34.2969 42.4306 34.343C42.4306 34.389 42.3933 34.4263 42.3472 34.4263" stroke="white" stroke-width="2" stroke-linecap="round" stroke-linejoin="round"/>
<path d="M42.3472 34.4264C42.3012 34.4264 42.2639 34.3891 42.2639 34.343" stroke="white" stroke-width="2" stroke-linecap="round" stroke-linejoin="round"/>
</svg>
