<svg width="247" height="76" viewBox="0 0 247 76" fill="none" xmlns="http://www.w3.org/2000/svg">
<path d="M62.7525 12.6304H235.773C241.973 12.6304 247 17.657 247 23.8576V50.4713C247 56.672 241.973 61.6986 235.773 61.6986H62.7525V12.6304Z" fill="#4C73EF"/>
<path d="M79.429 41.6646C79.3448 41.6646 79.2746 41.6365 79.2185 41.5803C79.1624 41.5149 79.1343 41.4447 79.1343 41.3698C79.1343 41.3231 79.139 41.281 79.1483 41.2435L82.4884 32.2196C82.5165 32.1167 82.5726 32.0278 82.6568 31.953C82.7411 31.8781 82.858 31.8407 83.0077 31.8407H84.8041C84.9538 31.8407 85.0707 31.8781 85.1549 31.953C85.2391 32.0278 85.2953 32.1167 85.3233 32.2196L88.6634 41.2435C88.6728 41.281 88.6775 41.3231 88.6775 41.3698C88.6775 41.4447 88.6494 41.5149 88.5933 41.5803C88.5371 41.6365 88.467 41.6646 88.3828 41.6646H86.9232C86.7829 41.6646 86.68 41.6318 86.6145 41.5663C86.549 41.5008 86.5069 41.44 86.4882 41.3839L85.8847 39.8121H81.9271L81.3236 41.3839C81.3049 41.44 81.2628 41.5008 81.1973 41.5663C81.1318 41.6318 81.0289 41.6646 80.8886 41.6646H79.429ZM82.4463 38.0017H85.3514L83.9059 33.9598L82.4463 38.0017ZM91.8066 41.6646C91.6663 41.6646 91.5587 41.6318 91.4839 41.5663C91.4184 41.4915 91.3622 41.4073 91.3154 41.3137L88.677 34.8019C88.6583 34.7645 88.649 34.7224 88.649 34.6756C88.649 34.5914 88.677 34.5212 88.7332 34.4651C88.7987 34.3996 88.8735 34.3668 88.9577 34.3668H90.319C90.4407 34.3668 90.5295 34.3996 90.5857 34.4651C90.6512 34.5306 90.6933 34.5914 90.712 34.6475L92.4382 39.2788L94.1644 34.6475C94.1924 34.5914 94.2345 34.5306 94.2907 34.4651C94.3562 34.3996 94.445 34.3668 94.5573 34.3668H95.9186C96.0028 34.3668 96.073 34.3996 96.1291 34.4651C96.1946 34.5212 96.2274 34.5914 96.2274 34.6756C96.2274 34.7224 96.2227 34.7645 96.2133 34.8019L93.5609 41.3137C93.5235 41.4073 93.4673 41.4915 93.3925 41.5663C93.3176 41.6318 93.21 41.6646 93.0697 41.6646H91.8066ZM99.2658 41.8049C98.7699 41.8049 98.3255 41.7113 97.9325 41.5242C97.5396 41.3277 97.2261 41.0658 96.9922 40.7383C96.7583 40.4108 96.6414 40.046 96.6414 39.6436C96.6414 38.9794 96.908 38.4554 97.4413 38.0718C97.984 37.6882 98.695 37.4263 99.5745 37.2859L101.413 37.0193V36.7667C101.413 36.4018 101.329 36.1211 101.16 35.9246C100.992 35.7281 100.697 35.6299 100.276 35.6299C99.9675 35.6299 99.7195 35.6907 99.5324 35.8123C99.3453 35.934 99.2003 36.093 99.0973 36.2895C99.0225 36.4111 98.9149 36.4719 98.7746 36.4719H97.4413C97.3384 36.4719 97.2589 36.4439 97.2027 36.3877C97.1466 36.3222 97.1232 36.2474 97.1326 36.1632C97.1326 36.0041 97.1934 35.817 97.315 35.6018C97.4366 35.3866 97.6238 35.1761 97.8764 34.9703C98.129 34.7551 98.4518 34.5773 98.8447 34.437C99.2377 34.2967 99.7195 34.2265 100.29 34.2265C100.88 34.2265 101.385 34.2967 101.806 34.437C102.227 34.5773 102.564 34.7738 102.816 35.0264C103.069 35.279 103.256 35.5738 103.378 35.9106C103.499 36.238 103.56 36.5936 103.56 36.9772V41.3137C103.56 41.4166 103.527 41.5008 103.462 41.5663C103.396 41.6318 103.312 41.6646 103.209 41.6646H101.834C101.74 41.6646 101.661 41.6318 101.595 41.5663C101.53 41.5008 101.497 41.4166 101.497 41.3137V40.7944C101.376 40.9722 101.212 41.1406 101.006 41.2997C100.8 41.4494 100.552 41.571 100.262 41.6646C99.9815 41.7581 99.6494 41.8049 99.2658 41.8049ZM99.8271 40.3453C100.136 40.3453 100.412 40.2799 100.655 40.1489C100.898 40.0179 101.09 39.8167 101.231 39.5454C101.371 39.2741 101.441 38.9326 101.441 38.5209V38.2823L100.136 38.4928C99.6306 38.5771 99.2611 38.7034 99.0272 38.8718C98.7933 39.0402 98.6763 39.246 98.6763 39.4893C98.6763 39.667 98.7278 39.8214 98.8307 39.9524C98.943 40.0834 99.088 40.1816 99.2658 40.2471C99.4435 40.3126 99.6306 40.3453 99.8271 40.3453ZM105.61 41.6646C105.507 41.6646 105.423 41.6318 105.358 41.5663C105.292 41.5008 105.259 41.4166 105.259 41.3137V32.0512C105.259 31.9483 105.292 31.8641 105.358 31.7986C105.423 31.7331 105.507 31.7003 105.61 31.7003H107.014C107.107 31.7003 107.187 31.7331 107.252 31.7986C107.318 31.8641 107.35 31.9483 107.35 32.0512V41.3137C107.35 41.4166 107.318 41.5008 107.252 41.5663C107.187 41.6318 107.107 41.6646 107.014 41.6646H105.61ZM109.845 41.6646C109.751 41.6646 109.672 41.6318 109.606 41.5663C109.541 41.5008 109.508 41.4166 109.508 41.3137V34.7177C109.508 34.6148 109.541 34.5306 109.606 34.4651C109.672 34.3996 109.751 34.3668 109.845 34.3668H111.248C111.351 34.3668 111.435 34.3996 111.501 34.4651C111.566 34.5306 111.599 34.6148 111.599 34.7177V41.3137C111.599 41.4166 111.566 41.5008 111.501 41.5663C111.435 41.6318 111.351 41.6646 111.248 41.6646H109.845ZM109.803 33.2441C109.709 33.2441 109.63 33.2113 109.564 33.1459C109.499 33.0804 109.466 32.9962 109.466 32.8932V31.7705C109.466 31.6676 109.499 31.5834 109.564 31.5179C109.63 31.4431 109.709 31.4056 109.803 31.4056H111.276C111.379 31.4056 111.463 31.4431 111.529 31.5179C111.604 31.5834 111.641 31.6676 111.641 31.7705V32.8932C111.641 32.9962 111.604 33.0804 111.529 33.1459C111.463 33.2113 111.379 33.2441 111.276 33.2441H109.803ZM115.506 41.8049C115.011 41.8049 114.566 41.7113 114.173 41.5242C113.78 41.3277 113.467 41.0658 113.233 40.7383C112.999 40.4108 112.882 40.046 112.882 39.6436C112.882 38.9794 113.149 38.4554 113.682 38.0718C114.225 37.6882 114.936 37.4263 115.815 37.2859L117.654 37.0193V36.7667C117.654 36.4018 117.569 36.1211 117.401 35.9246C117.233 35.7281 116.938 35.6299 116.517 35.6299C116.208 35.6299 115.96 35.6907 115.773 35.8123C115.586 35.934 115.441 36.093 115.338 36.2895C115.263 36.4111 115.156 36.4719 115.015 36.4719H113.682C113.579 36.4719 113.5 36.4439 113.443 36.3877C113.387 36.3222 113.364 36.2474 113.373 36.1632C113.373 36.0041 113.434 35.817 113.556 35.6018C113.677 35.3866 113.864 35.1761 114.117 34.9703C114.37 34.7551 114.692 34.5773 115.085 34.437C115.478 34.2967 115.96 34.2265 116.531 34.2265C117.12 34.2265 117.626 34.2967 118.047 34.437C118.468 34.5773 118.804 34.7738 119.057 35.0264C119.31 35.279 119.497 35.5738 119.618 35.9106C119.74 36.238 119.801 36.5936 119.801 36.9772V41.3137C119.801 41.4166 119.768 41.5008 119.703 41.5663C119.637 41.6318 119.553 41.6646 119.45 41.6646H118.075C117.981 41.6646 117.902 41.6318 117.836 41.5663C117.771 41.5008 117.738 41.4166 117.738 41.3137V40.7944C117.616 40.9722 117.452 41.1406 117.247 41.2997C117.041 41.4494 116.793 41.571 116.503 41.6646C116.222 41.7581 115.89 41.8049 115.506 41.8049ZM116.068 40.3453C116.376 40.3453 116.652 40.2799 116.896 40.1489C117.139 40.0179 117.331 39.8167 117.471 39.5454C117.611 39.2741 117.682 38.9326 117.682 38.5209V38.2823L116.376 38.4928C115.871 38.5771 115.502 38.7034 115.268 38.8718C115.034 39.0402 114.917 39.246 114.917 39.4893C114.917 39.667 114.968 39.8214 115.071 39.9524C115.184 40.0834 115.329 40.1816 115.506 40.2471C115.684 40.3126 115.871 40.3453 116.068 40.3453ZM124.728 44.7521C124.475 44.7521 124.246 44.7099 124.04 44.6257C123.844 44.5415 123.699 44.4433 123.605 44.331C123.521 44.2188 123.526 44.1205 123.619 44.0363L123.872 43.8118C123.956 43.7369 124.026 43.7135 124.082 43.7416C124.148 43.779 124.227 43.8258 124.321 43.8819C124.414 43.9381 124.55 43.9661 124.728 43.9661C124.878 43.9661 124.999 43.924 125.093 43.8398C125.186 43.7556 125.233 43.648 125.233 43.5171C125.233 43.3954 125.186 43.2925 125.093 43.2083C124.999 43.1241 124.878 43.082 124.728 43.082C124.616 43.082 124.513 43.096 124.419 43.1241C124.326 43.1615 124.237 43.1849 124.152 43.1943C124.078 43.2036 124.007 43.1756 123.942 43.1101L123.675 42.8434C123.619 42.7873 123.596 42.7218 123.605 42.6469C123.615 42.5814 123.643 42.4972 123.689 42.3943L123.984 41.7488C123.17 41.6178 122.515 41.281 122.019 40.7383C121.523 40.1956 121.257 39.4799 121.219 38.5911C121.21 38.4414 121.205 38.2543 121.205 38.0297C121.205 37.7958 121.21 37.604 121.219 37.4543C121.247 36.7713 121.406 36.1913 121.697 35.7141C121.996 35.2276 122.408 34.858 122.932 34.6054C123.455 34.3528 124.059 34.2265 124.742 34.2265C125.369 34.2265 125.902 34.3154 126.342 34.4931C126.782 34.6615 127.142 34.8767 127.422 35.1387C127.703 35.4007 127.909 35.6767 128.04 35.9667C128.18 36.2474 128.255 36.4953 128.264 36.7105C128.274 36.8041 128.241 36.8883 128.166 36.9631C128.101 37.0286 128.021 37.0614 127.928 37.0614H126.426C126.332 37.0614 126.258 37.038 126.201 36.9912C126.155 36.9351 126.108 36.8602 126.061 36.7667C125.93 36.4392 125.762 36.2053 125.556 36.0649C125.35 35.9246 125.093 35.8544 124.784 35.8544C124.363 35.8544 124.031 35.9901 123.788 36.2614C123.544 36.5328 123.413 36.9538 123.395 37.5245C123.385 37.8894 123.385 38.2215 123.395 38.5209C123.423 39.101 123.554 39.522 123.788 39.784C124.031 40.046 124.363 40.1769 124.784 40.1769C125.111 40.1769 125.373 40.1068 125.57 39.9664C125.766 39.8261 125.93 39.5922 126.061 39.2647C126.099 39.1712 126.145 39.101 126.201 39.0542C126.258 38.9981 126.332 38.97 126.426 38.97H127.928C128.021 38.97 128.101 39.0074 128.166 39.0823C128.241 39.1478 128.274 39.2273 128.264 39.3209C128.255 39.5173 128.185 39.7559 128.054 40.0366C127.923 40.3173 127.722 40.5933 127.45 40.8646C127.189 41.1266 126.838 41.3464 126.398 41.5242C125.958 41.702 125.425 41.7955 124.798 41.8049L124.517 42.3803C124.573 42.3522 124.648 42.3288 124.742 42.3101C124.845 42.3008 124.924 42.2961 124.98 42.2961C125.317 42.2961 125.584 42.4084 125.78 42.6329C125.986 42.8574 126.089 43.1475 126.089 43.503C126.089 43.8585 125.968 44.1533 125.724 44.3872C125.49 44.6304 125.158 44.7521 124.728 44.7521ZM132.981 41.8049C132.204 41.8049 131.554 41.6786 131.03 41.426C130.506 41.164 130.104 40.7944 129.823 40.3173C129.552 39.8401 129.402 39.2834 129.374 38.6472C129.365 38.4601 129.36 38.2496 129.36 38.0157C129.36 37.7724 129.365 37.5619 129.374 37.3842C129.402 36.7386 129.561 36.1819 129.851 35.7141C130.141 35.2369 130.548 34.8721 131.072 34.6194C131.596 34.3575 132.233 34.2265 132.981 34.2265C133.72 34.2265 134.352 34.3575 134.876 34.6194C135.4 34.8721 135.807 35.2369 136.097 35.7141C136.387 36.1819 136.546 36.7386 136.574 37.3842C136.592 37.5619 136.602 37.7724 136.602 38.0157C136.602 38.2496 136.592 38.4601 136.574 38.6472C136.546 39.2834 136.391 39.8401 136.111 40.3173C135.839 40.7944 135.442 41.164 134.918 41.426C134.394 41.6786 133.748 41.8049 132.981 41.8049ZM132.981 40.2611C133.439 40.2611 133.786 40.1208 134.02 39.8401C134.253 39.5501 134.38 39.1291 134.398 38.5771C134.408 38.4367 134.412 38.2496 134.412 38.0157C134.412 37.7818 134.408 37.5947 134.398 37.4543C134.38 36.9117 134.253 36.4953 134.02 36.2053C133.786 35.9153 133.439 35.7702 132.981 35.7702C132.523 35.7702 132.172 35.9153 131.928 36.2053C131.695 36.4953 131.568 36.9117 131.55 37.4543C131.54 37.5947 131.536 37.7818 131.536 38.0157C131.536 38.2496 131.54 38.4367 131.55 38.5771C131.568 39.1291 131.695 39.5501 131.928 39.8401C132.172 40.1208 132.523 40.2611 132.981 40.2611ZM133.781 33.3844C133.528 33.3844 133.323 33.3423 133.163 33.2581C133.014 33.1739 132.873 33.0944 132.742 33.0195C132.621 32.9353 132.48 32.8932 132.321 32.8932C132.2 32.8932 132.111 32.926 132.055 32.9915C131.999 33.057 131.947 33.1271 131.9 33.202C131.854 33.2768 131.779 33.3143 131.676 33.3143H130.932C130.867 33.3143 130.81 33.2909 130.764 33.2441C130.717 33.188 130.693 33.1318 130.693 33.0757C130.693 32.926 130.717 32.7623 130.764 32.5845C130.82 32.3974 130.904 32.2196 131.016 32.0512C131.138 31.8734 131.292 31.7284 131.479 31.6161C131.666 31.5039 131.891 31.4477 132.153 31.4477C132.406 31.4477 132.611 31.4898 132.771 31.574C132.93 31.6489 133.07 31.7284 133.192 31.8126C133.323 31.8968 133.468 31.9389 133.627 31.9389C133.748 31.9389 133.832 31.9015 133.879 31.8267C133.935 31.7518 133.987 31.6816 134.034 31.6161C134.09 31.5413 134.169 31.5039 134.272 31.5039H135.002C135.086 31.5039 135.147 31.5319 135.184 31.5881C135.231 31.6349 135.255 31.691 135.255 31.7565C135.255 31.9062 135.226 32.0746 135.17 32.2617C135.114 32.4395 135.025 32.6172 134.904 32.795C134.791 32.9634 134.642 33.1038 134.455 33.216C134.267 33.3283 134.043 33.3844 133.781 33.3844ZM141.325 41.8049C140.25 41.8049 139.393 41.5055 138.757 40.9067C138.13 40.3079 137.798 39.4378 137.761 38.2964C137.761 38.2215 137.761 38.1233 137.761 38.0017C137.761 37.8707 137.761 37.7678 137.761 37.6929C137.798 36.9725 137.962 36.355 138.252 35.8404C138.542 35.3165 138.949 34.9188 139.473 34.6475C139.997 34.3668 140.61 34.2265 141.311 34.2265C142.097 34.2265 142.752 34.3902 143.276 34.7177C143.81 35.0358 144.207 35.4755 144.469 36.0369C144.74 36.5889 144.876 37.2251 144.876 37.9455V38.2683C144.876 38.3619 144.839 38.4414 144.764 38.5069C144.698 38.5724 144.619 38.6051 144.525 38.6051H139.936C139.936 38.6145 139.936 38.6332 139.936 38.6613C139.936 38.68 139.936 38.6987 139.936 38.7174C139.945 39.0168 140.002 39.2928 140.105 39.5454C140.217 39.7887 140.371 39.9851 140.568 40.1348C140.773 40.2845 141.017 40.3594 141.297 40.3594C141.531 40.3594 141.723 40.3266 141.873 40.2611C142.023 40.1956 142.144 40.1161 142.238 40.0226C142.341 39.929 142.415 39.8495 142.462 39.784C142.546 39.6904 142.612 39.6343 142.659 39.6156C142.715 39.5875 142.799 39.5735 142.911 39.5735H144.371C144.464 39.5735 144.539 39.6015 144.595 39.6577C144.661 39.7045 144.689 39.7746 144.68 39.8682C144.67 40.0179 144.591 40.205 144.441 40.4296C144.301 40.6447 144.09 40.8599 143.81 41.0751C143.529 41.281 143.178 41.454 142.757 41.5944C142.345 41.7347 141.868 41.8049 141.325 41.8049ZM139.936 37.328H142.687V37.2999C142.687 36.9631 142.631 36.6731 142.518 36.4298C142.415 36.1772 142.261 35.9807 142.055 35.8404C141.849 35.7001 141.601 35.6299 141.311 35.6299C141.021 35.6299 140.773 35.7001 140.568 35.8404C140.362 35.9807 140.203 36.1772 140.09 36.4298C139.988 36.6731 139.936 36.9631 139.936 37.2999V37.328ZM149.156 41.8049C148.576 41.8049 148.075 41.7394 147.654 41.6084C147.243 41.4681 146.906 41.2997 146.644 41.1032C146.391 40.9067 146.199 40.7102 146.068 40.5138C145.947 40.3079 145.881 40.1348 145.872 39.9945C145.863 39.8916 145.895 39.8074 145.97 39.7419C146.045 39.6764 146.12 39.6436 146.195 39.6436H147.556C147.584 39.6436 147.612 39.6483 147.64 39.6577C147.668 39.667 147.696 39.6904 147.724 39.7278C147.846 39.8121 147.972 39.9103 148.103 40.0226C148.234 40.1255 148.384 40.2144 148.552 40.2892C148.73 40.3641 148.95 40.4015 149.212 40.4015C149.521 40.4015 149.783 40.3407 149.998 40.219C150.213 40.0881 150.321 39.9056 150.321 39.6717C150.321 39.5033 150.269 39.363 150.166 39.2507C150.073 39.1384 149.89 39.0355 149.619 38.9419C149.348 38.8484 148.945 38.7455 148.412 38.6332C147.907 38.5209 147.477 38.3712 147.121 38.1841C146.765 37.997 146.499 37.7631 146.321 37.4824C146.143 37.1924 146.054 36.8462 146.054 36.4439C146.054 36.079 146.167 35.7281 146.391 35.3913C146.625 35.0545 146.967 34.7785 147.416 34.5633C147.865 34.3388 148.426 34.2265 149.1 34.2265C149.614 34.2265 150.064 34.292 150.447 34.423C150.84 34.5446 151.168 34.7036 151.429 34.9001C151.691 35.0872 151.888 35.2837 152.019 35.4896C152.159 35.686 152.234 35.8591 152.243 36.0088C152.253 36.1024 152.225 36.1819 152.159 36.2474C152.094 36.3129 152.019 36.3456 151.935 36.3456H150.686C150.639 36.3456 150.597 36.341 150.559 36.3316C150.522 36.3129 150.489 36.2895 150.461 36.2614C150.349 36.1866 150.232 36.1024 150.11 36.0088C149.998 35.9059 149.862 35.817 149.703 35.7422C149.544 35.6673 149.338 35.6299 149.086 35.6299C148.777 35.6299 148.538 35.7001 148.37 35.8404C148.211 35.9714 148.131 36.1398 148.131 36.3456C148.131 36.4766 148.174 36.5982 148.258 36.7105C148.342 36.8228 148.515 36.9257 148.777 37.0193C149.039 37.1128 149.437 37.2111 149.97 37.314C150.606 37.4263 151.111 37.5947 151.486 37.8192C151.86 38.0438 152.127 38.3057 152.286 38.6051C152.454 38.8952 152.538 39.2086 152.538 39.5454C152.538 39.9851 152.407 40.3781 152.145 40.7243C151.883 41.0611 151.5 41.3277 150.994 41.5242C150.499 41.7113 149.886 41.8049 149.156 41.8049ZM159.602 41.6646C159.452 41.6646 159.331 41.6271 159.237 41.5523C159.153 41.4681 159.092 41.3698 159.055 41.2576L156.107 32.2617C156.098 32.2149 156.093 32.1728 156.093 32.1354C156.093 32.0606 156.121 31.9951 156.178 31.9389C156.234 31.8734 156.304 31.8407 156.388 31.8407H157.862C158.002 31.8407 158.11 31.8828 158.184 31.967C158.269 32.0418 158.32 32.112 158.339 32.1775L160.528 39.0402L162.703 32.1775C162.732 32.112 162.783 32.0418 162.858 31.967C162.933 31.8828 163.04 31.8407 163.181 31.8407H164.654C164.738 31.8407 164.809 31.8734 164.865 31.9389C164.921 31.9951 164.949 32.0606 164.949 32.1354C164.949 32.1728 164.944 32.2149 164.935 32.2617L161.988 41.2576C161.96 41.3698 161.899 41.4681 161.805 41.5523C161.721 41.6271 161.599 41.6646 161.44 41.6646H159.602ZM168.695 41.8049C167.619 41.8049 166.763 41.5055 166.126 40.9067C165.5 40.3079 165.167 39.4378 165.13 38.2964C165.13 38.2215 165.13 38.1233 165.13 38.0017C165.13 37.8707 165.13 37.7678 165.13 37.6929C165.167 36.9725 165.331 36.355 165.621 35.8404C165.911 35.3165 166.318 34.9188 166.842 34.6475C167.366 34.3668 167.979 34.2265 168.681 34.2265C169.467 34.2265 170.122 34.3902 170.645 34.7177C171.179 35.0358 171.576 35.4755 171.838 36.0369C172.11 36.5889 172.245 37.2251 172.245 37.9455V38.2683C172.245 38.3619 172.208 38.4414 172.133 38.5069C172.068 38.5724 171.988 38.6051 171.894 38.6051H167.305C167.305 38.6145 167.305 38.6332 167.305 38.6613C167.305 38.68 167.305 38.6987 167.305 38.7174C167.315 39.0168 167.371 39.2928 167.474 39.5454C167.586 39.7887 167.74 39.9851 167.937 40.1348C168.143 40.2845 168.386 40.3594 168.667 40.3594C168.901 40.3594 169.092 40.3266 169.242 40.2611C169.392 40.1956 169.513 40.1161 169.607 40.0226C169.71 39.929 169.785 39.8495 169.831 39.784C169.916 39.6904 169.981 39.6343 170.028 39.6156C170.084 39.5875 170.168 39.5735 170.281 39.5735H171.74C171.834 39.5735 171.909 39.6015 171.965 39.6577C172.03 39.7045 172.058 39.7746 172.049 39.8682C172.039 40.0179 171.96 40.205 171.81 40.4296C171.67 40.6447 171.459 40.8599 171.179 41.0751C170.898 41.281 170.547 41.454 170.126 41.5944C169.715 41.7347 169.237 41.8049 168.695 41.8049ZM167.305 37.328H170.056V37.2999C170.056 36.9631 170 36.6731 169.888 36.4298C169.785 36.1772 169.63 35.9807 169.424 35.8404C169.219 35.7001 168.971 35.6299 168.681 35.6299C168.391 35.6299 168.143 35.7001 167.937 35.8404C167.731 35.9807 167.572 36.1772 167.46 36.4298C167.357 36.6731 167.305 36.9631 167.305 37.2999V37.328ZM173.985 41.6646C173.891 41.6646 173.812 41.6318 173.746 41.5663C173.681 41.5008 173.648 41.4166 173.648 41.3137V34.7177C173.648 34.6241 173.681 34.5446 173.746 34.4791C173.812 34.4042 173.891 34.3668 173.985 34.3668H175.36C175.454 34.3668 175.533 34.4042 175.599 34.4791C175.674 34.5446 175.711 34.6241 175.711 34.7177V35.279C175.945 34.989 176.23 34.7645 176.567 34.6054C176.913 34.4463 177.311 34.3668 177.76 34.3668H178.364C178.457 34.3668 178.537 34.3996 178.602 34.4651C178.668 34.5306 178.7 34.6148 178.7 34.7177V35.9246C178.7 36.0275 178.668 36.1117 178.602 36.1772C178.537 36.2427 178.457 36.2755 178.364 36.2755H177.129C176.717 36.2755 176.394 36.3924 176.16 36.6263C175.926 36.8509 175.809 37.1736 175.809 37.5947V41.3137C175.809 41.4166 175.777 41.5008 175.711 41.5663C175.646 41.6318 175.562 41.6646 175.459 41.6646H173.985ZM180.084 41.6646C179.99 41.6646 179.911 41.6318 179.845 41.5663C179.78 41.5008 179.747 41.4166 179.747 41.3137V34.7177C179.747 34.6148 179.78 34.5306 179.845 34.4651C179.911 34.3996 179.99 34.3668 180.084 34.3668H181.487C181.59 34.3668 181.674 34.3996 181.74 34.4651C181.805 34.5306 181.838 34.6148 181.838 34.7177V41.3137C181.838 41.4166 181.805 41.5008 181.74 41.5663C181.674 41.6318 181.59 41.6646 181.487 41.6646H180.084ZM180.042 33.2441C179.948 33.2441 179.869 33.2113 179.803 33.1459C179.738 33.0804 179.705 32.9962 179.705 32.8932V31.7705C179.705 31.6676 179.738 31.5834 179.803 31.5179C179.869 31.4431 179.948 31.4056 180.042 31.4056H181.515C181.618 31.4056 181.702 31.4431 181.768 31.5179C181.843 31.5834 181.88 31.6676 181.88 31.7705V32.8932C181.88 32.9962 181.843 33.0804 181.768 33.1459C181.702 33.2113 181.618 33.2441 181.515 33.2441H180.042ZM184.749 41.6646C184.646 41.6646 184.562 41.6318 184.496 41.5663C184.431 41.5008 184.398 41.4166 184.398 41.3137V36.0228H183.303C183.201 36.0228 183.116 35.9901 183.051 35.9246C182.985 35.8591 182.953 35.7749 182.953 35.672V34.7177C182.953 34.6148 182.985 34.5306 183.051 34.4651C183.116 34.3996 183.201 34.3668 183.303 34.3668H184.398V33.8616C184.398 33.2628 184.51 32.7716 184.735 32.388C184.959 32.0044 185.287 31.7237 185.717 31.546C186.148 31.3682 186.676 31.2793 187.303 31.2793H190.531C190.625 31.2793 190.704 31.3121 190.77 31.3776C190.835 31.4431 190.868 31.5273 190.868 31.6302V32.5845C190.868 32.6874 190.835 32.7716 190.77 32.8371C190.704 32.9026 190.625 32.9353 190.531 32.9353H187.387C187.041 32.9353 186.798 33.0196 186.658 33.188C186.527 33.3564 186.461 33.6043 186.461 33.9318V34.3668H190.531C190.625 34.3668 190.704 34.3996 190.77 34.4651C190.835 34.5306 190.868 34.6148 190.868 34.7177V41.3137C190.868 41.4166 190.835 41.5008 190.77 41.5663C190.704 41.6318 190.625 41.6646 190.531 41.6646H189.156C189.053 41.6646 188.969 41.6318 188.903 41.5663C188.838 41.5008 188.805 41.4166 188.805 41.3137V36.0228H186.461V41.3137C186.461 41.4166 186.428 41.5008 186.363 41.5663C186.297 41.6318 186.218 41.6646 186.124 41.6646H184.749ZM195.927 41.8049C195.244 41.8049 194.64 41.6786 194.116 41.426C193.602 41.1734 193.195 40.8085 192.895 40.3313C192.596 39.8448 192.432 39.2647 192.404 38.5911C192.395 38.4414 192.39 38.2543 192.39 38.0297C192.39 37.7958 192.395 37.604 192.404 37.4543C192.432 36.7713 192.591 36.1913 192.881 35.7141C193.181 35.2276 193.592 34.858 194.116 34.6054C194.64 34.3528 195.244 34.2265 195.927 34.2265C196.553 34.2265 197.087 34.3154 197.526 34.4931C197.966 34.6615 198.326 34.8767 198.607 35.1387C198.888 35.4007 199.094 35.6767 199.225 35.9667C199.365 36.2474 199.44 36.4953 199.449 36.7105C199.458 36.8041 199.426 36.8883 199.351 36.9631C199.285 37.0286 199.206 37.0614 199.112 37.0614H197.611C197.517 37.0614 197.442 37.038 197.386 36.9912C197.339 36.9351 197.293 36.8602 197.246 36.7667C197.115 36.4392 196.946 36.2053 196.741 36.0649C196.535 35.9246 196.277 35.8544 195.969 35.8544C195.548 35.8544 195.215 35.9901 194.972 36.2614C194.729 36.5328 194.598 36.9538 194.579 37.5245C194.57 37.8894 194.57 38.2215 194.579 38.5209C194.607 39.101 194.738 39.522 194.972 39.784C195.215 40.046 195.548 40.1769 195.969 40.1769C196.296 40.1769 196.558 40.1068 196.755 39.9664C196.951 39.8261 197.115 39.5922 197.246 39.2647C197.283 39.1712 197.33 39.101 197.386 39.0542C197.442 38.9981 197.517 38.97 197.611 38.97H199.112C199.206 38.97 199.285 39.0074 199.351 39.0823C199.426 39.1478 199.458 39.2273 199.449 39.3209C199.44 39.4799 199.393 39.667 199.309 39.8822C199.234 40.0974 199.108 40.3173 198.93 40.5418C198.761 40.7664 198.542 40.9769 198.27 41.1734C197.999 41.3605 197.667 41.5149 197.274 41.6365C196.89 41.7488 196.441 41.8049 195.927 41.8049ZM202.973 41.8049C202.477 41.8049 202.032 41.7113 201.64 41.5242C201.247 41.3277 200.933 41.0658 200.699 40.7383C200.465 40.4108 200.348 40.046 200.348 39.6436C200.348 38.9794 200.615 38.4554 201.148 38.0718C201.691 37.6882 202.402 37.4263 203.282 37.2859L205.12 37.0193V36.7667C205.12 36.4018 205.036 36.1211 204.867 35.9246C204.699 35.7281 204.404 35.6299 203.983 35.6299C203.674 35.6299 203.427 35.6907 203.239 35.8123C203.052 35.934 202.907 36.093 202.804 36.2895C202.729 36.4111 202.622 36.4719 202.482 36.4719H201.148C201.045 36.4719 200.966 36.4439 200.91 36.3877C200.854 36.3222 200.83 36.2474 200.84 36.1632C200.84 36.0041 200.9 35.817 201.022 35.6018C201.144 35.3866 201.331 35.1761 201.583 34.9703C201.836 34.7551 202.159 34.5773 202.552 34.437C202.945 34.2967 203.427 34.2265 203.997 34.2265C204.587 34.2265 205.092 34.2967 205.513 34.437C205.934 34.5773 206.271 34.7738 206.523 35.0264C206.776 35.279 206.963 35.5738 207.085 35.9106C207.206 36.238 207.267 36.5936 207.267 36.9772V41.3137C207.267 41.4166 207.234 41.5008 207.169 41.5663C207.103 41.6318 207.019 41.6646 206.916 41.6646H205.541C205.447 41.6646 205.368 41.6318 205.302 41.5663C205.237 41.5008 205.204 41.4166 205.204 41.3137V40.7944C205.083 40.9722 204.919 41.1406 204.713 41.2997C204.507 41.4494 204.259 41.571 203.969 41.6646C203.688 41.7581 203.356 41.8049 202.973 41.8049ZM203.534 40.3453C203.843 40.3453 204.119 40.2799 204.362 40.1489C204.605 40.0179 204.797 39.8167 204.938 39.5454C205.078 39.2741 205.148 38.9326 205.148 38.5209V38.2823L203.843 38.4928C203.338 38.5771 202.968 38.7034 202.734 38.8718C202.5 39.0402 202.383 39.246 202.383 39.4893C202.383 39.667 202.435 39.8214 202.538 39.9524C202.65 40.0834 202.795 40.1816 202.973 40.2471C203.151 40.3126 203.338 40.3453 203.534 40.3453ZM211.675 41.8049C211.207 41.8049 210.791 41.73 210.426 41.5803C210.061 41.4213 209.752 41.1967 209.5 40.9067C209.247 40.6073 209.055 40.2565 208.924 39.8542C208.793 39.4425 208.714 38.9887 208.686 38.4928C208.676 38.3151 208.672 38.156 208.672 38.0157C208.672 37.866 208.676 37.7069 208.686 37.5385C208.704 37.052 208.779 36.6076 208.91 36.2053C209.051 35.803 209.242 35.4568 209.486 35.1668C209.738 34.8674 210.047 34.6381 210.412 34.4791C210.786 34.3107 211.207 34.2265 211.675 34.2265C212.162 34.2265 212.578 34.3107 212.924 34.4791C213.27 34.6381 213.556 34.8487 213.78 35.1106V32.0512C213.78 31.9483 213.813 31.8641 213.878 31.7986C213.944 31.7331 214.028 31.7003 214.131 31.7003H215.576C215.67 31.7003 215.75 31.7331 215.815 31.7986C215.881 31.8641 215.913 31.9483 215.913 32.0512V41.3137C215.913 41.4166 215.881 41.5008 215.815 41.5663C215.75 41.6318 215.67 41.6646 215.576 41.6646H214.229C214.136 41.6646 214.056 41.6318 213.991 41.5663C213.925 41.5008 213.892 41.4166 213.892 41.3137V40.8365C213.658 41.1172 213.364 41.3511 213.008 41.5382C212.653 41.716 212.208 41.8049 211.675 41.8049ZM212.321 40.1208C212.667 40.1208 212.943 40.0413 213.149 39.8822C213.364 39.7232 213.518 39.522 213.612 39.2788C213.715 39.0355 213.771 38.7735 213.78 38.4928C213.799 38.3151 213.808 38.1373 213.808 37.9596C213.808 37.7818 213.799 37.6087 213.78 37.4403C213.771 37.1783 213.715 36.9351 213.612 36.7105C213.509 36.4766 213.35 36.2848 213.135 36.1351C212.929 35.9854 212.657 35.9106 212.321 35.9106C211.965 35.9106 211.684 35.9901 211.479 36.1492C211.273 36.2988 211.123 36.5 211.029 36.7526C210.945 37.0052 210.894 37.2812 210.875 37.5806C210.847 37.8707 210.847 38.1607 210.875 38.4507C210.894 38.7501 210.945 39.0261 211.029 39.2788C211.123 39.5314 211.273 39.7372 211.479 39.8963C211.684 40.046 211.965 40.1208 212.321 40.1208ZM219.844 41.8049C219.348 41.8049 218.904 41.7113 218.511 41.5242C218.118 41.3277 217.804 41.0658 217.57 40.7383C217.336 40.4108 217.219 40.046 217.219 39.6436C217.219 38.9794 217.486 38.4554 218.019 38.0718C218.562 37.6882 219.273 37.4263 220.153 37.2859L221.991 37.0193V36.7667C221.991 36.4018 221.907 36.1211 221.738 35.9246C221.57 35.7281 221.275 35.6299 220.854 35.6299C220.546 35.6299 220.298 35.6907 220.11 35.8123C219.923 35.934 219.778 36.093 219.675 36.2895C219.601 36.4111 219.493 36.4719 219.353 36.4719H218.019C217.916 36.4719 217.837 36.4439 217.781 36.3877C217.725 36.3222 217.701 36.2474 217.711 36.1632C217.711 36.0041 217.771 35.817 217.893 35.6018C218.015 35.3866 218.202 35.1761 218.454 34.9703C218.707 34.7551 219.03 34.5773 219.423 34.437C219.816 34.2967 220.298 34.2265 220.868 34.2265C221.458 34.2265 221.963 34.2967 222.384 34.437C222.805 34.5773 223.142 34.7738 223.394 35.0264C223.647 35.279 223.834 35.5738 223.956 35.9106C224.077 36.238 224.138 36.5936 224.138 36.9772V41.3137C224.138 41.4166 224.106 41.5008 224.04 41.5663C223.975 41.6318 223.89 41.6646 223.787 41.6646H222.412C222.318 41.6646 222.239 41.6318 222.173 41.5663C222.108 41.5008 222.075 41.4166 222.075 41.3137V40.7944C221.954 40.9722 221.79 41.1406 221.584 41.2997C221.378 41.4494 221.13 41.571 220.84 41.6646C220.56 41.7581 220.227 41.8049 219.844 41.8049ZM220.405 40.3453C220.714 40.3453 220.99 40.2799 221.233 40.1489C221.476 40.0179 221.668 39.8167 221.809 39.5454C221.949 39.2741 222.019 38.9326 222.019 38.5209V38.2823L220.714 38.4928C220.209 38.5771 219.839 38.7034 219.605 38.8718C219.371 39.0402 219.254 39.246 219.254 39.4893C219.254 39.667 219.306 39.8214 219.409 39.9524C219.521 40.0834 219.666 40.1816 219.844 40.2471C220.022 40.3126 220.209 40.3453 220.405 40.3453ZM228.714 41.8049C228.134 41.8049 227.634 41.7394 227.213 41.6084C226.801 41.4681 226.464 41.2997 226.202 41.1032C225.95 40.9067 225.758 40.7102 225.627 40.5138C225.505 40.3079 225.44 40.1348 225.43 39.9945C225.421 39.8916 225.454 39.8074 225.529 39.7419C225.604 39.6764 225.678 39.6436 225.753 39.6436H227.115C227.143 39.6436 227.171 39.6483 227.199 39.6577C227.227 39.667 227.255 39.6904 227.283 39.7278C227.405 39.8121 227.531 39.9103 227.662 40.0226C227.793 40.1255 227.943 40.2144 228.111 40.2892C228.289 40.3641 228.509 40.4015 228.771 40.4015C229.079 40.4015 229.341 40.3407 229.557 40.219C229.772 40.0881 229.879 39.9056 229.879 39.6717C229.879 39.5033 229.828 39.363 229.725 39.2507C229.631 39.1384 229.449 39.0355 229.178 38.9419C228.906 38.8484 228.504 38.7455 227.971 38.6332C227.465 38.5209 227.035 38.3712 226.68 38.1841C226.324 37.997 226.057 37.7631 225.88 37.4824C225.702 37.1924 225.613 36.8462 225.613 36.4439C225.613 36.079 225.725 35.7281 225.95 35.3913C226.184 35.0545 226.525 34.7785 226.974 34.5633C227.423 34.3388 227.985 34.2265 228.658 34.2265C229.173 34.2265 229.622 34.292 230.006 34.423C230.399 34.5446 230.726 34.7036 230.988 34.9001C231.25 35.0872 231.446 35.2837 231.577 35.4896C231.718 35.686 231.793 35.8591 231.802 36.0088C231.811 36.1024 231.783 36.1819 231.718 36.2474C231.652 36.3129 231.577 36.3456 231.493 36.3456H230.244C230.197 36.3456 230.155 36.341 230.118 36.3316C230.08 36.3129 230.048 36.2895 230.02 36.2614C229.907 36.1866 229.79 36.1024 229.669 36.0088C229.557 35.9059 229.421 35.817 229.262 35.7422C229.103 35.6673 228.897 35.6299 228.644 35.6299C228.336 35.6299 228.097 35.7001 227.929 35.8404C227.769 35.9714 227.69 36.1398 227.69 36.3456C227.69 36.4766 227.732 36.5982 227.816 36.7105C227.9 36.8228 228.074 36.9257 228.336 37.0193C228.598 37.1128 228.995 37.2111 229.528 37.314C230.165 37.4263 230.67 37.5947 231.044 37.8192C231.418 38.0438 231.685 38.3057 231.844 38.6051C232.012 38.8952 232.097 39.2086 232.097 39.5454C232.097 39.9851 231.966 40.3781 231.704 40.7243C231.442 41.0611 231.058 41.3277 230.553 41.5242C230.057 41.7113 229.444 41.8049 228.714 41.8049Z" fill="white"/>
<path fill-rule="evenodd" clip-rule="evenodd" d="M38.8552 0.508282C38.1775 -0.169427 37.0787 -0.169427 36.401 0.508282L33.1674 3.74187L29.2063 1.45489C28.3762 0.975677 27.3149 1.26006 26.8357 2.09008L24.5487 6.05132L20.1312 4.86766C19.2054 4.6196 18.2538 5.16899 18.0058 6.09476L16.822 10.5126H12.2481C11.2897 10.5126 10.5127 11.2895 10.5127 12.2479V16.8216L6.09506 18.0053C5.16929 18.2534 4.6199 19.2049 4.86796 20.1307L6.05156 24.548L2.09055 26.8349C1.26053 27.3141 0.976147 28.3754 1.45536 29.2054L3.74246 33.1668L0.508282 36.401C-0.169427 37.0787 -0.169427 38.1775 0.508282 38.8552L3.74222 42.0891L1.45569 46.0495C0.976481 46.8795 1.26087 47.9409 2.09089 48.4201L6.05197 50.707L4.86815 55.1251C4.62009 56.0509 5.16948 57.0025 6.09525 57.2505L10.5127 58.4342V63.0079C10.5127 63.9663 11.2897 64.7433 12.2481 64.7433H16.8219L18.0056 69.1611C18.2537 70.0868 19.2052 70.6362 20.131 70.3882L24.5488 69.2044L26.8353 73.1649C27.3146 73.9949 28.3759 74.2793 29.2059 73.8L33.1665 71.5134L36.401 74.7479C37.0787 75.4256 38.1775 75.4256 38.8552 74.7479L42.0897 71.5134L46.0503 73.8001C46.8803 74.2793 47.9417 73.9949 48.4209 73.1649L50.7075 69.2043L55.1256 70.3882C56.0514 70.6362 57.0029 70.0868 57.251 69.1611L58.4347 64.7433H63.0081C63.9665 64.7433 64.7435 63.9663 64.7435 63.0079V58.4343L69.1614 57.2505C70.0871 57.0025 70.6365 56.0509 70.3885 55.1251L69.2046 50.7068L73.1653 48.4201C73.9953 47.9409 74.2797 46.8795 73.8005 46.0495L71.514 42.0891L74.7479 38.8552C75.4256 38.1775 75.4256 37.0787 74.7479 36.401L71.5137 33.1668L73.8009 29.2054C74.2801 28.3754 73.9957 27.3141 73.1657 26.8349L69.205 24.5482L70.3886 20.1307C70.6367 19.2049 70.0873 18.2534 69.1615 18.0053L64.7435 16.8215V12.2479C64.7435 11.2895 63.9665 10.5126 63.0081 10.5126H58.4346L57.2508 6.09476C57.0028 5.16899 56.0512 4.6196 55.1254 4.86766L50.7076 6.05141L48.4205 2.09008C47.9413 1.26006 46.88 0.975678 46.05 1.45489L42.0888 3.74188L38.8552 0.508282Z" fill="#4C73EF"/>
<circle cx="37.8921" cy="37.8914" r="23.858" fill="white"/>
<g clip-path="url(#clip0_280_465)">
<path d="M32.9664 22.6136C29.6893 23.7505 26.8632 25.9082 24.9031 28.77C22.943 31.6317 21.9523 35.0466 22.0764 38.513C22.2006 41.9794 23.4331 45.3147 25.5929 48.0289C27.7526 50.743 30.7259 52.6931 34.0759 53.5926C36.7918 54.2934 39.6372 54.3242 42.3677 53.6823C44.8412 53.1267 47.128 51.9382 49.0042 50.2333C50.9569 48.4047 52.3743 46.0784 53.104 43.5046C53.8968 40.7056 54.0379 37.7622 53.5165 34.9002H38.2653V41.2266H47.0978C46.9213 42.2357 46.543 43.1987 45.9856 44.0581C45.4282 44.9175 44.7031 45.6557 43.8538 46.2284C42.7754 46.9421 41.5596 47.4221 40.2845 47.6377C39.0057 47.8755 37.6941 47.8755 36.4153 47.6377C35.1191 47.37 33.893 46.835 32.8152 46.0669C31.0834 44.8411 29.7831 43.0995 29.0998 41.0908C28.4051 39.0445 28.4051 36.8261 29.0998 34.7797C29.5862 33.3454 30.3902 32.0394 31.452 30.9593C32.6671 29.7005 34.2053 28.8007 35.8981 28.3586C37.5909 27.9166 39.3727 27.9493 41.048 28.4533C42.3569 28.8548 43.5538 29.5568 44.5431 30.5032C45.539 29.5124 46.5332 28.519 47.5257 27.5231C48.0382 26.9876 48.5968 26.4777 49.1015 25.9293C47.5911 24.5239 45.8183 23.4303 43.8846 22.711C40.3631 21.4324 36.51 21.398 32.9664 22.6136Z" fill="#212529"/>
<path d="M32.9665 22.6127C36.5099 21.3962 40.363 21.4297 43.8847 22.7075C45.8188 23.4316 47.5908 24.5306 49.0991 25.9412C48.5867 26.4895 48.046 27.002 47.5233 27.535C46.5291 28.5275 45.5358 29.5165 44.5433 30.5022C43.5539 29.5559 42.3571 28.8539 41.0482 28.4523C39.3734 27.9466 37.5916 27.912 35.8984 28.3522C34.2052 28.7925 32.666 29.6906 31.4496 30.948C30.3878 32.0282 29.5838 33.3342 29.0974 34.7685L23.7856 30.6559C25.6869 26.8856 28.9788 24.0015 32.9665 22.6127Z" fill="#EC4235"/>
<path d="M22.3765 34.7309C22.6618 33.3159 23.1358 31.9456 23.7858 30.6567L29.0976 34.7796C28.4029 36.8259 28.4029 39.0443 29.0976 41.0907C27.3278 42.4573 25.5572 43.8307 23.7858 45.2109C22.1591 41.9729 21.663 38.2836 22.3765 34.7309Z" fill="#FABC05"/>
<path d="M38.2653 34.8972H53.5164C54.0379 37.7592 53.8967 40.7026 53.1039 43.5016C52.3742 46.0755 50.9568 48.4017 49.0041 50.2304C47.2899 48.8928 45.568 47.5655 43.8538 46.228C44.7037 45.6547 45.429 44.9158 45.9865 44.0554C46.5439 43.1951 46.9218 42.2311 47.0977 41.2211H38.2653C38.2627 39.1149 38.2653 37.006 38.2653 34.8972Z" fill="#4285F6"/>
<path d="M23.7827 45.2101C25.5541 43.8435 27.3247 42.4701 29.0944 41.0898C29.7791 43.0992 31.0813 44.8409 32.815 46.0659C33.8962 46.8305 35.1249 47.3611 36.4228 47.6239C37.7016 47.8617 39.0132 47.8617 40.292 47.6239C41.5671 47.4083 42.7829 46.9283 43.8613 46.2146C45.5755 47.5521 47.2975 48.8794 49.0117 50.217C47.1357 51.9228 44.8489 53.1121 42.3752 53.6685C39.6447 54.3104 36.7993 54.2796 34.0834 53.5788C31.9353 53.0053 29.9289 51.9942 28.1899 50.609C26.3495 49.1475 24.8461 47.3059 23.7827 45.2101Z" fill="#34A855"/>
</g>
<defs>
<clipPath id="clip0_280_465">
<rect width="32.7982" height="32.7982" fill="white" transform="translate(21.5413 21.5339)"/>
</clipPath>
</defs>
</svg>
