<svg width="48" height="48" viewBox="0 0 48 48" fill="none" xmlns="http://www.w3.org/2000/svg">
<rect width="48" height="48" rx="24" fill="white"/>
<path fill-rule="evenodd" clip-rule="evenodd" d="M22.856 25.144C21.686 23.974 20.804 22.664 20.218 21.335C20.094 21.054 20.167 20.725 20.384 20.508L21.203 19.69C21.874 19.019 21.874 18.07 21.288 17.484L20.114 16.31C19.333 15.529 18.067 15.529 17.286 16.31L16.634 16.962C15.893 17.703 15.584 18.772 15.784 19.832C16.278 22.445 17.796 25.306 20.245 27.755C22.694 30.204 25.555 31.722 28.168 32.216C29.228 32.416 30.297 32.107 31.038 31.366L31.689 30.715C32.47 29.934 32.47 28.668 31.689 27.887L30.516 26.714C29.93 26.128 28.98 26.128 28.395 26.714L27.492 27.618C27.275 27.835 26.946 27.908 26.665 27.784C25.336 27.197 24.026 26.314 22.856 25.144Z" fill="#014479" stroke="#014479" stroke-width="1.5" stroke-linecap="round" stroke-linejoin="round"/>
</svg>
