<svg width="33" height="33" viewBox="0 0 33 33" fill="none" xmlns="http://www.w3.org/2000/svg">
<path d="M27.1583 7.81477C31.8446 12.5011 31.8446 20.099 27.1583 24.7853C22.472 29.4716 14.8741 29.4716 10.1878 24.7853C5.50149 20.099 5.50149 12.501 10.1878 7.81477C14.8741 3.12848 22.4721 3.12848 27.1583 7.81477" stroke="#DEE2E6" stroke-linecap="round" stroke-linejoin="round"/>
<path d="M25.749 25.976C25.237 23.5226 22.2797 21.6333 18.673 21.6333C15.0663 21.6333 12.109 23.5226 11.597 25.976" stroke="#DEE2E6" stroke-linecap="round" stroke-linejoin="round"/>
<path d="M21.5014 10.8049C23.0635 12.367 23.0635 14.8996 21.5014 16.4617C19.9393 18.0238 17.4066 18.0238 15.8445 16.4617C14.2825 14.8996 14.2825 12.367 15.8445 10.8049C17.4066 9.24278 19.9393 9.24278 21.5014 10.8049" stroke="#DEE2E6" stroke-linecap="round" stroke-linejoin="round"/>
</svg>
