<svg width="42" height="42" viewBox="0 0 42 42" fill="none" xmlns="http://www.w3.org/2000/svg">
<path fill-rule="evenodd" clip-rule="evenodd" d="M13.1419 19.644C13.2371 21.6097 14.0209 23.4794 15.356 24.9254C16.4223 26.1639 17.6946 27.2089 19.1169 28.0141C20.3554 28.705 21.8732 28.6603 23.0689 27.8976C24.3579 27.0737 25.517 26.0621 26.5078 24.8964C27.8675 23.465 28.6969 21.6116 28.8583 19.644C28.8675 18.4734 28.4298 17.3433 27.6344 16.4844C26.87 15.6515 25.7941 15.1734 24.6637 15.1643C23.2443 15.065 21.8726 15.6979 21.0271 16.8422L21.0002 16.8816L20.9729 16.8422C20.2035 15.7595 18.946 15.1305 17.6182 15.1643C16.4243 15.144 15.2734 15.6095 14.4294 16.4542C13.5854 17.2988 13.1207 18.4501 13.1419 19.644V19.644Z" stroke="#0070AB" stroke-width="2" stroke-linecap="round" stroke-linejoin="round"/>
<circle cx="21" cy="21" r="15.0062" stroke="#0070AB" stroke-width="2" stroke-linecap="round" stroke-linejoin="round"/>
</svg>
