<svg width="40" height="40" viewBox="0 0 40 40" fill="none" xmlns="http://www.w3.org/2000/svg">
<path d="M12.5002 21.6667L20.0002 36.6667" stroke="#0070AB" stroke-width="2" stroke-linecap="round" stroke-linejoin="round"/>
<path fill-rule="evenodd" clip-rule="evenodd" d="M35.4819 19.1217L29.1252 31.8334C28.7302 32.625 27.7802 32.9784 26.9769 32.61C24.7136 31.5717 22.2719 31.0684 19.8302 31.0667C17.3886 31.0684 14.9469 31.5717 12.6836 32.61C11.8786 32.9784 10.9286 32.625 10.5336 31.8334L4.17858 19.1217C3.77525 18.3167 4.07525 17.3117 4.87525 16.9017C9.55858 14.5 14.6919 13.335 19.8286 13.3334C24.9652 13.335 30.0986 14.5 34.7836 16.9017C35.5852 17.3134 35.8836 18.3167 35.4819 19.1217Z" stroke="#0070AB" stroke-width="2" stroke-linecap="round" stroke-linejoin="round"/>
</svg>
